<svg enable-background="new 0 0 512 512" viewBox="0 0 512 512" xmlns="http://www.w3.org/2000/svg"><style>
    path {
      fill: #fb7823;
    }
    @media (prefers-color-scheme: dark) {
      path {
        fill: #ffb32e;
      }
    }
  </style><path fill="#fb7823" d="m254.7 512c141.4.6 256.6-113.5 257.3-254.9.7-141.3-113.3-256.5-254.7-257.1s-256.6 113.5-257.3 254.8c0 12 .7 23.9 2.4 35.8 0 0 .6 4.5 1 6.7 20.7 123.9 126.9 214.6 251.3 214.7zm161.5-403.9c36.4 39.3 57 90.8 57.8 144.5-18.4-10.3-37.8-18.9-57.8-25.5zm-244.6-54.6c53.5-21.7 113.3-21.6 166.9.1v155c-8.1-1.2-16.4-2.3-25.2-3.1-6-28.1-30.8-48.2-59.5-48.1-28.6.1-53.3 20.2-59.3 48.4-7.9.8-15.5 1.7-23 2.8v-155.1zm114.1 177.1c-5.2 12.8-17.5 21.1-31.1 21.1-18.4.1-33.5-14.8-33.7-33.4-.2-13.8 7.9-26.3 20.4-31.8 12.6-5.4 27.1-2.7 36.9 7 9.7 9.7 12.7 24.3 7.5 37.1zm-88.6 7.9c8.8 24.1 31.5 40 56.9 40 25.4 0 48.1-16 56.9-40.2 9.6.9 18.8 2.1 27.6 3.4-2.5 44.9-39.2 79.9-83.5 79.9s-80.9-35.2-83.4-80.1c8.2-1.2 16.7-2.2 25.5-3zm57.2 163.7c81.6.4 150.8-60.5 161.5-142.2 19.8 6.5 39 14.8 57.3 24.9-15.3 110.1-109.1 191.7-219.3 190.7-111.3.1-204.9-84-217.8-195.6 18.9-8.5 38.3-15.7 58.1-21.6 10 81.8 78.6 143.4 160.2 143.8zm-161.4-295v118c-20.1 5.9-39.7 13.1-58.8 21.7 2.2-52.1 23.1-101.7 58.8-139.7z" /></svg>